<svg width="2882" height="3234" viewBox="0 0 2882 3234" fill="none" xmlns="http://www.w3.org/2000/svg">
<path fill-rule="evenodd" clip-rule="evenodd" d="M892.192 665.953C481.419 571.285 154.655 613.427 41.8734 808.84C-70.9061 1004.25 55.9874 1308.4 343.321 1616.93C55.8953 1925.51 -71.0537 2229.72 41.7428 2425.16C154.542 2620.6 481.39 2662.73 892.253 2568C1015.68 2971.29 1215.57 3233.38 1441.16 3233.38C1666.73 3233.38 1866.59 2971.35 1990.02 2568.14C2400.98 2662.92 2727.91 2620.81 2840.73 2425.34C2953.55 2229.86 2826.53 1925.57 2538.98 1616.93C2826.44 1308.34 2953.4 1004.11 2840.6 808.66C2727.8 613.217 2400.95 571.092 1990.09 665.819C1866.66 262.491 1666.76 0.377913 1441.16 0.37793C1215.53 0.377947 1015.61 262.549 892.192 665.953Z" fill="#E1F3FA"/>
<path fill-rule="evenodd" clip-rule="evenodd" d="M1030.38 2730.88C1006.85 2674.86 985.049 2614.39 965.209 2549.98C1115.99 2510.27 1276.62 2453.06 1441.07 2379.13C1605.59 2453.12 1766.29 2510.37 1917.14 2550.11C1897.31 2614.47 1875.52 2674.9 1852.01 2730.88C1792.89 2871.68 1724.4 2980.76 1652.18 3053.5C1580.24 3125.97 1509 3158.38 1441.19 3158.38C1373.39 3158.38 1302.15 3125.97 1230.21 3053.51C1157.99 2980.76 1089.5 2871.68 1030.38 2730.88ZM1990.06 2568.14C1866.63 2971.35 1666.76 3233.38 1441.19 3233.38C1215.6 3233.38 1015.71 2971.29 892.287 2568C481.425 2662.73 154.577 2620.6 41.7779 2425.16C-71.0184 2229.72 55.93 1925.51 343.354 1616.93C56.0201 1308.4 -70.8739 1004.25 41.9057 808.839C154.687 613.426 481.452 571.284 892.226 665.954C1015.65 262.55 1215.56 0.377947 1441.19 0.37793C1666.8 0.377913 1866.69 262.491 1990.12 665.819C2400.98 571.092 2727.83 613.216 2840.63 808.66C2953.44 1004.11 2826.47 1308.34 2539.02 1616.93C2826.56 1925.57 2953.58 2229.86 2840.76 2425.34C2727.95 2620.81 2401.01 2662.92 1990.06 2568.14ZM2486.97 1671.08C2532.87 1720.53 2574.37 1769.71 2611.14 1818.15C2703.47 1939.77 2763.66 2053.64 2790.53 2152.58C2817.29 2251.13 2809.73 2329.07 2775.82 2387.83C2741.9 2446.59 2678.21 2492.11 2579.51 2518.2C2480.43 2544.39 2351.76 2549.19 2200.3 2530.01C2139.99 2522.37 2076.67 2511.01 2010.92 2495.97C2051.97 2345.41 2082.77 2177.55 2101 1998C2247.29 1892.47 2377.16 1781.89 2486.97 1671.08ZM2486.96 1562.78C2532.81 1513.38 2574.28 1464.24 2611.02 1415.85C2703.35 1294.23 2763.53 1180.36 2790.4 1081.42C2817.16 982.866 2809.6 904.931 2775.69 846.171C2741.77 787.41 2678.09 741.893 2579.38 715.802C2480.3 689.608 2351.63 684.813 2200.17 703.993C2139.92 711.624 2076.66 722.973 2010.97 737.989C2052.01 888.545 2082.8 1056.39 2101.01 1235.92C2247.29 1341.43 2377.16 1451.99 2486.96 1562.78ZM2109.72 1335.43C2232.16 1427.33 2341.39 1522.29 2435.05 1616.94C2341.39 1711.59 2232.16 1806.57 2109.71 1898.48C2116.45 1807.03 2119.97 1712.93 2119.97 1616.88C2119.97 1520.88 2116.46 1426.83 2109.72 1335.43ZM2019.2 1178.61C2000.85 1026.53 1973.24 884.388 1938.12 755.895C1809.3 789.714 1672.43 836.874 1531.58 897.024C1614.2 936.933 1697.49 980.97 1780.72 1029.04C1863.81 1077.03 1943.45 1127.08 2019.2 1178.61ZM1441.08 937.229C1540.74 983.193 1641.93 1035.49 1743.23 1094C1844.39 1152.42 1940.13 1213.84 2029.65 1277.11C2039.66 1386.32 2044.97 1500 2044.97 1616.88C2044.97 1733.81 2039.66 1847.55 2029.63 1956.81C1940.08 2020.1 1844.31 2081.55 1743.1 2140C1641.85 2198.49 1540.7 2250.76 1441.08 2296.71C1341.57 2250.81 1240.56 2198.59 1139.43 2140.18C1038.18 2081.7 942.353 2020.22 852.763 1956.88C842.73 1847.6 837.414 1733.84 837.414 1616.88C837.414 1499.97 842.724 1386.27 852.748 1277.04C942.306 1213.73 1038.09 1152.27 1139.31 1093.82C1240.48 1035.39 1341.53 983.15 1441.08 937.229ZM1441.07 854.817C1605.62 780.819 1766.33 723.573 1917.2 683.84C1897.35 619.41 1875.54 558.911 1852.01 502.877C1792.89 362.074 1724.4 252.996 1652.18 180.251C1580.24 107.786 1509 75.3779 1441.19 75.3779C1373.39 75.3779 1302.15 107.786 1230.21 180.251C1157.99 252.996 1089.5 362.074 1030.37 502.877C1006.83 558.948 985.005 619.49 965.149 683.969C1115.95 723.672 1276.59 780.875 1441.07 854.817ZM944.233 756.024C1072.98 789.815 1209.79 836.936 1350.56 897.035C1268.08 936.894 1184.91 980.867 1101.82 1028.86C1018.67 1076.88 938.984 1126.97 863.199 1178.53C881.541 1026.53 909.132 884.46 944.233 756.024ZM871.375 738.125C805.762 723.13 742.564 711.796 682.366 704.172C530.913 684.993 402.242 689.787 303.156 715.981C204.454 742.073 140.765 787.589 106.852 846.35C72.9384 905.11 65.379 983.045 92.1417 1081.6C119.009 1180.54 179.193 1294.41 271.524 1416.03C308.218 1464.36 349.623 1513.44 395.404 1562.78C505.208 1451.97 635.088 1341.38 781.38 1235.85C799.587 1056.39 830.367 888.625 871.375 738.125ZM395.4 1671.09C349.57 1720.47 308.123 1769.6 271.396 1817.97C179.065 1939.59 118.881 2053.46 92.014 2152.4C65.251 2250.96 72.8106 2328.89 106.724 2387.65C140.637 2446.41 204.326 2491.93 303.029 2518.02C402.114 2544.21 530.785 2549.01 682.238 2529.83C742.492 2522.2 805.752 2510.85 871.43 2495.83C830.407 2345.33 799.614 2177.54 781.396 1998.07C635.091 1892.52 505.204 1781.92 395.4 1671.09ZM772.683 1898.55C650.214 1806.61 540.975 1711.61 447.317 1616.94C540.976 1522.27 650.211 1427.29 772.672 1335.36C765.93 1426.79 762.414 1520.85 762.414 1616.88C762.414 1712.96 765.934 1807.08 772.683 1898.55ZM863.22 2055.4C881.571 2207.41 909.173 2349.49 944.286 2477.93C1073.02 2444.13 1209.81 2397.01 1350.57 2336.91C1268.12 2297.06 1185 2253.11 1101.94 2205.14C1018.76 2157.1 939.037 2106.99 863.22 2055.4ZM1531.58 2336.92C1614.15 2297.02 1697.41 2253.01 1780.59 2204.96C1863.72 2156.95 1943.4 2106.87 2019.18 2055.32C2000.82 2207.41 1973.2 2349.56 1938.06 2478.06C1809.26 2444.23 1672.4 2397.07 1531.58 2336.92Z" fill="#38ACDD"/>
<path fill-rule="evenodd" clip-rule="evenodd" d="M1441 1691C1482.42 1691 1516 1657.42 1516 1616C1516 1574.58 1482.42 1541 1441 1541C1399.58 1541 1366 1574.58 1366 1616C1366 1657.42 1399.58 1691 1441 1691ZM1441 1766C1523.84 1766 1591 1698.84 1591 1616C1591 1533.16 1523.84 1466 1441 1466C1358.16 1466 1291 1533.16 1291 1616C1291 1698.84 1358.16 1766 1441 1766Z" fill="#38ACDD"/>
<path fill-rule="evenodd" clip-rule="evenodd" d="M1442.5 1103C1463.21 1103 1480 1126.37 1480 1155.19L1480 1487.81C1480 1516.63 1463.21 1540 1442.5 1540C1421.79 1540 1405 1516.63 1405 1487.81L1405 1155.19C1405 1126.37 1421.79 1103 1442.5 1103Z" fill="#38ACDD"/>
<path fill-rule="evenodd" clip-rule="evenodd" d="M1439.56 2131C1418.85 2131 1402.06 2107.63 1402.06 2078.81L1402.06 1746.19C1402.06 1717.37 1418.85 1694 1439.56 1694C1460.27 1694 1477.06 1717.37 1477.06 1746.19L1477.06 2078.81C1477.06 2107.63 1460.27 2131 1439.56 2131Z" fill="#38ACDD"/>
<path fill-rule="evenodd" clip-rule="evenodd" d="M1952 1617.5C1952 1638.21 1928.63 1655 1899.81 1655L1567.19 1655C1538.37 1655 1515 1638.21 1515 1617.5C1515 1596.79 1538.37 1580 1567.19 1580L1899.81 1580C1928.63 1580 1952 1596.79 1952 1617.5Z" fill="#38ACDD"/>
<path fill-rule="evenodd" clip-rule="evenodd" d="M930 1614.56C930 1593.85 953.366 1577.06 982.189 1577.06L1314.81 1577.06C1343.63 1577.06 1367 1593.85 1367 1614.56C1367 1635.27 1343.63 1652.06 1314.81 1652.06L982.189 1652.06C953.366 1652.06 930 1635.27 930 1614.56Z" fill="#38ACDD"/>
<path fill-rule="evenodd" clip-rule="evenodd" d="M1066.33 1241.25C1080.97 1226.6 1109.37 1231.25 1129.75 1251.63L1364.95 1486.83C1385.33 1507.21 1389.98 1535.61 1375.33 1550.25C1360.69 1564.9 1332.29 1560.25 1311.91 1539.87L1076.71 1304.67C1056.33 1284.29 1051.68 1255.89 1066.33 1241.25Z" fill="#38ACDD"/>
<path fill-rule="evenodd" clip-rule="evenodd" d="M1065.29 1986.48C1050.64 1971.84 1055.29 1943.44 1075.67 1923.06L1310.87 1687.86C1331.25 1667.48 1359.65 1662.83 1374.29 1677.48C1388.94 1692.12 1384.29 1720.51 1363.9 1740.9L1128.71 1976.09C1108.32 1996.48 1079.93 2001.13 1065.29 1986.48Z" fill="#38ACDD"/>
<path fill-rule="evenodd" clip-rule="evenodd" d="M1812.52 1983.52C1797.88 1998.17 1769.48 1993.52 1749.1 1973.14L1513.9 1737.94C1493.52 1717.56 1488.87 1689.16 1503.51 1674.52C1518.16 1659.87 1546.55 1664.52 1566.93 1684.9L1802.13 1920.1C1822.51 1940.48 1827.17 1968.88 1812.52 1983.52Z" fill="#38ACDD"/>
<path fill-rule="evenodd" clip-rule="evenodd" d="M1813.56 1242.29C1828.21 1256.93 1823.56 1285.33 1803.17 1305.71L1567.98 1540.91C1547.59 1561.29 1519.2 1565.94 1504.56 1551.29C1489.91 1536.65 1494.56 1508.26 1514.94 1487.87L1750.14 1252.68C1770.52 1232.29 1798.92 1227.64 1813.56 1242.29Z" fill="#38ACDD"/>
<path fill-rule="evenodd" clip-rule="evenodd" d="M1597.55 1120.52C1612.19 1135.16 1612.19 1158.91 1597.55 1173.55L1484.58 1286.52C1469.93 1301.16 1446.19 1301.16 1431.55 1286.52C1416.9 1271.87 1416.9 1248.13 1431.55 1233.48L1544.51 1120.52C1559.16 1105.87 1582.9 1105.87 1597.55 1120.52Z" fill="#38ACDD"/>
<path fill-rule="evenodd" clip-rule="evenodd" d="M1284.52 2113.48C1269.87 2098.84 1269.87 2075.09 1284.52 2060.45L1397.48 1947.48C1412.13 1932.84 1435.87 1932.84 1450.52 1947.48C1465.16 1962.13 1465.16 1985.87 1450.52 2000.52L1337.55 2113.48C1322.9 2128.13 1299.16 2128.13 1284.52 2113.48Z" fill="#38ACDD"/>
<path fill-rule="evenodd" clip-rule="evenodd" d="M1934.48 1772.55C1919.84 1787.19 1896.09 1787.19 1881.45 1772.55L1768.48 1659.58C1753.84 1644.93 1753.84 1621.19 1768.48 1606.55C1783.13 1591.9 1806.87 1591.9 1821.51 1606.55L1934.48 1719.51C1949.13 1734.16 1949.13 1757.9 1934.48 1772.55Z" fill="#38ACDD"/>
<path fill-rule="evenodd" clip-rule="evenodd" d="M947.519 1459.52C962.163 1444.87 985.907 1444.87 1000.55 1459.52L1113.52 1572.48C1128.16 1587.13 1128.16 1610.87 1113.52 1625.52C1098.87 1640.16 1075.13 1640.16 1060.49 1625.52L947.519 1512.55C932.874 1497.9 932.874 1474.16 947.519 1459.52Z" fill="#38ACDD"/>
<path fill-rule="evenodd" clip-rule="evenodd" d="M1188.34 1144C1209.05 1144 1225.84 1160.79 1225.84 1181.5L1225.84 1341.26C1225.84 1361.97 1209.05 1378.76 1188.34 1378.76C1167.63 1378.76 1150.84 1361.97 1150.84 1341.26L1150.84 1181.5C1150.84 1160.79 1167.63 1144 1188.34 1144Z" fill="#38ACDD"/>
<path fill-rule="evenodd" clip-rule="evenodd" d="M968.039 1864.46C968.039 1843.75 984.828 1826.96 1005.54 1826.96L1165.3 1826.96C1186.01 1826.96 1202.8 1843.75 1202.8 1864.46C1202.8 1885.18 1186.01 1901.96 1165.3 1901.96L1005.54 1901.96C984.828 1901.96 968.039 1885.18 968.039 1864.46Z" fill="#38ACDD"/>
<path fill-rule="evenodd" clip-rule="evenodd" d="M1690.5 2080.77C1669.79 2080.77 1653 2063.98 1653 2043.27L1653 1883.51C1653 1862.8 1669.79 1846.01 1690.5 1846.01C1711.21 1846.01 1728 1862.8 1728 1883.51L1728 2043.27C1728 2063.98 1711.21 2080.77 1690.5 2080.77Z" fill="#38ACDD"/>
<path fill-rule="evenodd" clip-rule="evenodd" d="M1910.81 1364.3C1910.81 1385.02 1894.02 1401.8 1873.31 1401.8L1713.55 1401.8C1692.84 1401.8 1676.05 1385.02 1676.05 1364.3C1676.05 1343.59 1692.84 1326.8 1713.55 1326.8L1873.31 1326.8C1894.02 1326.8 1910.81 1343.59 1910.81 1364.3Z" fill="#38ACDD"/>
<path fill-rule="evenodd" clip-rule="evenodd" d="M1450.52 1286.52C1435.87 1301.16 1412.13 1301.16 1397.48 1286.52L1284.52 1173.55C1269.87 1158.91 1269.87 1135.16 1284.52 1120.52C1299.16 1105.87 1322.9 1105.87 1337.55 1120.52L1450.52 1233.48C1465.16 1248.13 1465.16 1271.87 1450.52 1286.52Z" fill="#38ACDD"/>
<path fill-rule="evenodd" clip-rule="evenodd" d="M1431.55 1947.48C1446.19 1932.84 1469.93 1932.84 1484.58 1947.48L1597.55 2060.45C1612.19 2075.09 1612.19 2098.84 1597.55 2113.48C1582.9 2128.13 1559.16 2128.13 1544.51 2113.48L1431.55 2000.52C1416.9 1985.87 1416.9 1962.13 1431.55 1947.48Z" fill="#38ACDD"/>
<path fill-rule="evenodd" clip-rule="evenodd" d="M1768.49 1625.52C1753.84 1610.87 1753.84 1587.13 1768.49 1572.48L1881.45 1459.52C1896.1 1444.87 1919.84 1444.87 1934.49 1459.52C1949.13 1474.16 1949.13 1497.9 1934.49 1512.55L1821.52 1625.52C1806.87 1640.16 1783.13 1640.16 1768.49 1625.52Z" fill="#38ACDD"/>
<path fill-rule="evenodd" clip-rule="evenodd" d="M1113.51 1606.55C1128.16 1621.19 1128.16 1644.93 1113.51 1659.58L1000.55 1772.55C985.903 1787.19 962.159 1787.19 947.515 1772.55C932.87 1757.9 932.87 1734.16 947.515 1719.51L1060.48 1606.55C1075.13 1591.9 1098.87 1591.9 1113.51 1606.55Z" fill="#38ACDD"/>
<path fill-rule="evenodd" clip-rule="evenodd" d="M1201.76 1365.34C1201.76 1386.05 1184.97 1402.84 1164.26 1402.84L1004.5 1402.84C983.788 1402.84 966.998 1386.05 966.998 1365.34C966.998 1344.63 983.788 1327.84 1004.5 1327.84L1164.26 1327.84C1184.97 1327.84 1201.76 1344.63 1201.76 1365.34Z" fill="#38ACDD"/>
<path fill-rule="evenodd" clip-rule="evenodd" d="M1189.38 1851.05C1210.09 1851.05 1226.88 1867.84 1226.88 1888.55L1226.88 2048.31C1226.88 2069.02 1210.09 2085.81 1189.38 2085.81C1168.67 2085.81 1151.88 2069.02 1151.88 2048.31L1151.88 1888.55C1151.88 1867.84 1168.67 1851.05 1189.38 1851.05Z" fill="#38ACDD"/>
<path fill-rule="evenodd" clip-rule="evenodd" d="M1677.09 1859.43C1677.09 1838.72 1693.88 1821.93 1714.59 1821.93L1874.35 1821.93C1895.06 1821.93 1911.85 1838.72 1911.85 1859.43C1911.85 1880.14 1895.06 1896.93 1874.35 1896.93L1714.59 1896.93C1693.88 1896.93 1677.09 1880.14 1677.09 1859.43Z" fill="#38ACDD"/>
<path fill-rule="evenodd" clip-rule="evenodd" d="M1689.46 1377.72C1668.75 1377.72 1651.96 1360.93 1651.96 1340.22L1651.96 1180.46C1651.96 1159.75 1668.75 1142.96 1689.46 1142.96C1710.18 1142.96 1726.96 1159.75 1726.96 1180.46L1726.96 1340.22C1726.96 1360.93 1710.18 1377.72 1689.46 1377.72Z" fill="#38ACDD"/>
</svg>
